# xmcd
#
# Track frame offsets: 
#        150
#        6210
#        26753
#        45833
#        66196
#        89131
#        107941
#        119296
#        137281
#        141594
#        158162
#        169187
#        186902
#
# Disc length: 2579 seconds
#
# Revision: 0
# Processed by: cddbd v1.5.2PL0 Copyright (c) Steve Scherf et al.
# Submitted via: ExactAudioCopy v1.0b1
#
DISCID=b40a110d
DTITLE=Rita Chiarelli - Music From The Big House
DYEAR=2011
DGENRE=Blues
TTITLE0=Rita's Journey
TTITLE1=These Four Walls
TTITLE2=Mississippi Boy
TTITLE3=Don't Let Him Catch You (With Your Work Undone)
TTITLE4=Mercy Blues
TTITLE5=Harvest
TTITLE6=Rest My Bones (Prisonyard Rehearsal)
TTITLE7=Glory Glory
TTITLE8=Rain On Me (Prisonyard Rehearsal)
TTITLE9=Rain On Me
TTITLE10=I Love You Still
TTITLE11=Midnight Special
TTITLE12=Convicted
EXTD=
EXTT0=
EXTT1=
EXTT2=
EXTT3=
EXTT4=
EXTT5=
EXTT6=
EXTT7=
EXTT8=
EXTT9=
EXTT10=
EXTT11=
EXTT12=
PLAYORDER=
